<?xml version="1.0" encoding="UTF-8"?>
<svg id="Layer_1" data-name="Layer 1" xmlns="http://www.w3.org/2000/svg" viewBox="0 0 340 340">
  <defs>
    <style>
      .cls-1 {
        fill: #fff;
      }
    </style>
  </defs>
  <path class="cls-1" d="m54.52,187.72c-1.29-.92-2.8-1.38-4.53-1.38-1.64,0-3.04.44-4.2,1.32-1.16.88-2.05,2.11-2.65,3.71-.6,1.6-.91,3.44-.91,5.54,0,2.23.32,4.22.96,5.96.64,1.74,1.55,3.1,2.75,4.08,1.2.98,2.6,1.47,4.22,1.47s3.13-.48,4.39-1.44c1.26-.96,2.24-2.29,2.94-4,.69-1.71,1.04-3.68,1.04-5.91,0-2.05-.35-3.89-1.04-5.52-.7-1.63-1.69-2.9-2.97-3.83Z"/>
  <path class="cls-1" d="m175.05,273.2c0,1.48.42,2.62,1.26,3.42.84.8,2.05,1.2,3.62,1.2s3.02-.4,4.34-1.2c.91-.55,1.59-1.12,2.03-1.73.44-.6.76-1.42.94-2.44.18-1.03.27-2.46.27-4.31v-1.74c-1.69.62-4.14,1.22-7.35,1.81-3.42.68-5.13,2.35-5.13,4.99Z"/>
  <path class="cls-1" d="m99.27,242.13h-7.45v14.29h7.45c3.03,0,5.19-.61,6.48-1.83,1.29-1.22,1.93-3,1.93-5.35s-.68-4.03-2.05-5.26-3.49-1.85-6.36-1.85Z"/>
  <path class="cls-1" d="m156.46,188.05c-1.37-1.34-3.18-2.02-5.43-2.02s-3.95.69-5.43,2.07c-1.48,1.38-2.36,3.3-2.63,5.76h15.89c-.23-2.53-1.03-4.47-2.39-5.81Z"/>
  <path class="cls-1" d="m119.93,188.05c-1.37-1.34-3.18-2.02-5.43-2.02s-3.95.69-5.43,2.07c-1.48,1.38-2.36,3.3-2.63,5.76h15.89c-.23-2.53-1.03-4.47-2.39-5.81Z"/>
  <path class="cls-1" d="m320,0h-150c-22.94,0-45.21,4.5-66.18,13.37-20.25,8.56-38.42,20.82-54.03,36.42-15.61,15.61-27.86,33.78-36.42,54.03C4.5,124.79,0,147.06,0,170v170h170c22.94,0,45.21-4.5,66.18-13.37,20.25-8.56,38.42-20.82,54.03-36.42,15.61-15.61,27.86-33.78,36.42-54.03,8.87-20.97,13.37-43.24,13.37-66.18V0h-20Zm-147.97,179.5h8.96v4.75c1.3-1.82,2.89-3.21,4.79-4.15,1.89-.95,3.98-1.42,6.25-1.42,3.99,0,7.04,1.07,9.16,3.2s3.18,5.12,3.18,8.97v24.92h-9.6v-22.66c0-2.32-.43-4.08-1.3-5.28-.87-1.2-2.31-1.79-4.34-1.79-2.21,0-4.02.79-5.42,2.38-1.4,1.58-2.09,4.01-2.07,7.26v20.1h-9.6v-36.26Zm-67.17,1.78c2.69-1.73,5.89-2.6,9.6-2.6s6.6.75,9.21,2.24,4.63,3.68,6.07,6.56,2.15,6.36,2.15,10.44v2.94h-25.5c.23,2.69,1.01,4.76,2.36,6.22,1.34,1.46,3.12,2.19,5.33,2.19,2.03,0,3.7-.46,5.01-1.38,1.31-.92,2.22-2.15,2.72-3.67l9.57,1.5c-1.28,3.53-3.35,6.23-6.22,8.1-2.87,1.87-6.39,2.8-10.56,2.8-3.92,0-7.22-.78-9.91-2.32-2.69-1.55-4.71-3.73-6.05-6.55-1.34-2.81-2.02-6.11-2.02-9.89,0-3.49.7-6.69,2.1-9.6,1.4-2.92,3.45-5.24,6.14-6.97Zm-30.78-1.78h8.89v5.13h.14c1.28-2.12,2.63-3.64,4.07-4.56,1.44-.92,3.17-1.38,5.2-1.38,1.23,0,2.35.14,3.37.43,1.01.29,2.01.68,2.99,1.18l-3.08,8.54c-.5-.34-1.2-.67-2.1-.99-.9-.32-1.69-.48-2.38-.48-2.44,0-4.3.98-5.57,2.94-1.28,1.96-1.91,4.74-1.91,8.34v17.12h-9.6v-36.26Zm-15.61,31.34c-.96,1.44-2.38,2.62-4.27,3.54-1.89.92-3.98,1.38-6.25,1.38-3.05,0-5.76-.78-8.12-2.34-2.36-1.56-4.19-3.74-5.49-6.53s-1.95-5.96-1.95-9.52c0-3.92.63-7.28,1.88-10.08,1.25-2.8,3.05-4.94,5.38-6.41,2.33-1.47,5.08-2.2,8.22-2.2,2.42,0,4.58.45,6.49,1.35s3.45,2.19,4.61,3.88h.14v-4.41h8.96v32.95c0,4.31-.64,7.78-1.91,10.42-1.28,2.64-3.23,4.57-5.86,5.78-2.63,1.21-6.03,1.81-10.2,1.81-10.23,0-15.72-4.1-16.47-12.3l9.95,1.61c.23,1.16.88,2.01,1.97,2.55,1.08.54,2.73.8,4.94.8,2.62,0,4.63-.67,6.03-2.02,1.4-1.34,2.1-3.5,2.1-6.46v-3.79h-.14Zm16.51,52.28c0,5.1-.62,9.22-1.85,12.34-1.23,3.12-3.26,5.43-6.08,6.92-2.83,1.49-6.68,2.24-11.55,2.24-5.13,0-9.19-.79-12.19-2.36s-5.13-3.91-6.41-7.02c-1.28-3.11-1.91-7.13-1.91-12.05v-29.53h10.08v29.84c0,2.99.35,5.38,1.04,7.19.7,1.81,1.78,3.14,3.26,3.98,1.48.84,3.44,1.26,5.88,1.26,2.57,0,4.55-.42,5.93-1.26,1.38-.84,2.34-2.16,2.89-3.95s.82-4.24.82-7.37v-29.7h10.08v29.46Zm38.58-2.08c-3.05,2.58-7.76,3.86-14.12,3.86h-7.62v18.87h-10.08v-50.11h17.71c6.45,0,11.18,1.3,14.18,3.9s4.51,6.44,4.51,11.52c0,5.4-1.53,9.39-4.58,11.96Zm44.51,16.13c-3.66,4.4-9.3,6.6-16.94,6.6h-19.58v-50.11h19.69c14.88,0,22.32,8.48,22.32,25.43,0,7.66-1.83,13.68-5.49,18.08Zm3.63-63.35c-2.87,1.87-6.39,2.8-10.56,2.8-3.92,0-7.22-.78-9.91-2.32-2.69-1.55-4.71-3.73-6.05-6.55-1.34-2.81-2.02-6.11-2.02-9.89,0-3.49.7-6.69,2.1-9.6,1.4-2.92,3.45-5.24,6.14-6.97,2.69-1.73,5.89-2.6,9.6-2.6s6.6.75,9.21,2.24,4.63,3.68,6.07,6.56,2.15,6.36,2.15,10.44v2.94h-25.5c.23,2.69,1.01,4.76,2.36,6.22,1.34,1.46,3.12,2.19,5.33,2.19,2.03,0,3.7-.46,5.01-1.38,1.31-.92,2.22-2.15,2.72-3.67l9.57,1.5c-1.28,3.53-3.35,6.23-6.22,8.1Zm28.1,69.95c-.48-1.05-.87-2.38-1.16-4-3.21,3.24-6.97,4.85-11.28,4.85-2.37,0-4.46-.46-6.25-1.37-1.8-.91-3.19-2.19-4.17-3.84-.98-1.65-1.47-3.54-1.47-5.66,0-3.21,1.05-5.76,3.14-7.66,2.1-1.89,5.33-3.18,9.71-3.86s7.45-1.34,9.23-1.98v-.68c0-2.12-.52-3.57-1.55-4.36-1.04-.79-2.57-1.18-4.6-1.18-1.6,0-2.93.37-4,1.09-1.07.73-1.88,1.88-2.43,3.45l-8.75-1.33c.96-3.65,2.73-6.32,5.33-8.02,2.6-1.7,6.07-2.55,10.42-2.55,3.53,0,6.41.45,8.63,1.35,2.22.9,3.87,2.33,4.94,4.29,1.07,1.96,1.61,4.52,1.61,7.69v14.8c0,1.73.12,3.18.38,4.34.25,1.16.83,2.7,1.74,4.61h-9.47Zm27.4.55c-1.28.21-2.56.31-3.86.31-2.55,0-4.55-.35-5.98-1.06s-2.46-1.86-3.06-3.47c-.6-1.61-.91-3.82-.91-6.65v-18.32h-5.13v-7.62h5.13v-6.63l9.6-6.8v13.43h6.77v7.62h-6.77v17.67c0,1.05.07,1.84.22,2.38s.41.91.79,1.13c.38.22.94.33,1.69.33,1.18,0,2.45-.18,3.79-.55l1.2,7.42c-1.05.34-2.21.62-3.49.82Zm38.44-15.45h-25.5c.23,2.69,1.01,4.76,2.36,6.22,1.34,1.46,3.12,2.19,5.33,2.19,2.03,0,3.7-.46,5.01-1.38,1.31-.92,2.22-2.15,2.72-3.67l9.57,1.5c-1.28,3.53-3.35,6.23-6.22,8.1-2.87,1.87-6.39,2.8-10.56,2.8-3.92,0-7.22-.78-9.91-2.32-2.69-1.55-4.71-3.73-6.05-6.55-1.34-2.81-2.02-6.11-2.02-9.89,0-3.49.7-6.69,2.1-9.6,1.4-2.92,3.45-5.24,6.14-6.97,2.69-1.73,5.89-2.6,9.6-2.6s6.6.75,9.21,2.24,4.63,3.68,6.07,6.56,2.15,6.36,2.15,10.44v2.94Z"/>
  <path class="cls-1" d="m238.22,254.03c-2.14,0-3.95.69-5.43,2.07-1.48,1.38-2.36,3.3-2.63,5.76h15.89c-.23-2.53-1.03-4.47-2.39-5.81-1.37-1.34-3.18-2.02-5.43-2.02Z"/>
  <path class="cls-1" d="m147.36,243.74c-1.95-1.07-4.54-1.61-7.78-1.61h-7.96v33.15h8.1c3.35,0,5.99-.52,7.91-1.55s3.32-2.75,4.17-5.13c.86-2.38,1.28-5.66,1.28-9.83s-.47-7.39-1.4-9.81c-.93-2.42-2.38-4.16-4.32-5.23Z"/>
</svg>